<svg width="250" height="100" viewBox="0 0 250 100" fill="none" xmlns="http://www.w3.org/2000/svg">
<path d="M0 99.9989V47.1149L44.1395 0.0605469H105.768V24.6287L129.087 0.0605469H182.804V41.2851H217.782V99.9989H155.321V74.1815L132.418 99.9989H74.9538V74.1815L51.6348 99.9989H0Z" fill="black"/>
<path d="M212.5 44.5363C212.5 44.102 212.852 43.75 213.286 43.75H249.214C249.648 43.75 250 44.102 250 44.5363V99.2137C250 99.648 249.648 100 249.214 100H213.286C212.852 100 212.5 99.648 212.5 99.2137V44.5363Z" fill="black"/>
<g clip-path="url(#clip0_8281_8293)">
<rect x="181.25" width="68.75" height="68.75" rx="1.30952" fill="white"/>
<path d="M181.25 0H250V68.75H181.25V0ZM208.494 39.8596C205.719 37.2222 203.124 34.3623 200.307 31.7729C199.963 31.457 199.319 31.5887 199.053 31.8861C198.276 32.752 194.322 36.2488 194.158 37.0746C194.282 37.8079 195.852 39.1832 196.422 39.7516L199.964 43.286L204.962 48.2924C205.695 49.0271 207.712 51.2412 208.51 51.4549C208.84 51.4024 209.337 50.968 209.578 50.7282C211.561 48.7541 213.537 46.7624 215.516 44.7848L228.068 32.2362L233.925 26.3868C234.659 25.6551 236.639 23.8987 237.083 22.8801C237.129 22.7742 236.766 22.2049 236.682 22.1376C235.965 21.3307 235.147 20.6082 234.39 19.8385C233.625 19.0862 232.879 18.1846 232.035 17.5422C231.776 17.3453 231.545 17.3218 231.233 17.3318C230.552 17.6802 226.358 22.0199 225.488 22.89L214.463 33.9179C212.535 35.8451 210.461 38.0079 208.494 39.8596Z" fill="#0055FF" stroke="#0055FF" stroke-width="1.96429"/>
</g>
<defs>
<clipPath id="clip0_8281_8293">
<rect x="181.25" width="68.75" height="68.75" rx="1.30952" fill="white"/>
</clipPath>
</defs>
</svg>
