<svg width="224" height="100" viewBox="0 0 224 100" fill="none" xmlns="http://www.w3.org/2000/svg">
<path d="M0 99.9989V47.1149L44.1395 0.0605469H105.768V24.6287L129.087 0.0605469H182.804V41.2851H217.782V99.9989H155.321V74.1815L132.418 99.9989H74.9538V74.1815L51.6348 99.9989H0Z" fill="black"/>
<path d="M215.186 42.0577C215.186 41.6235 215.538 41.2715 215.972 41.2715H222.655C223.089 41.2715 223.441 41.6235 223.441 42.0577V99.2112C223.441 99.6455 223.089 99.9975 222.655 99.9975H215.972C215.538 99.9975 215.186 99.6455 215.186 99.2112V42.0577Z" fill="black"/>
<g clip-path="url(#clip0_8280_8095)">
<rect x="182.163" width="41.2788" height="41.2788" rx="0.786263" fill="white"/>
<path d="M182.163 0H223.441V41.2788H182.163V0ZM198.521 23.9325C196.854 22.3489 195.296 20.6318 193.605 19.0771C193.398 18.8874 193.012 18.9665 192.852 19.145C192.386 19.6649 190.012 21.7645 189.913 22.2603C189.987 22.7006 190.93 23.5264 191.272 23.8676L193.399 25.9897L196.4 28.9957C196.84 29.4368 198.051 30.7662 198.53 30.8945C198.728 30.863 199.027 30.6022 199.171 30.4582C200.362 29.2729 201.548 28.077 202.736 26.8897L210.273 19.3552L213.789 15.8432C214.23 15.4038 215.419 14.3493 215.686 13.7376C215.714 13.6741 215.495 13.3323 215.445 13.2918C215.015 12.8074 214.523 12.3736 214.069 11.9114C213.61 11.4597 213.162 10.9184 212.655 10.5327C212.5 10.4145 212.361 10.4004 212.173 10.4064C211.764 10.6156 209.246 13.2212 208.724 13.7436L202.104 20.365C200.947 21.5221 199.702 22.8207 198.521 23.9325Z" fill="#0055FF" stroke="#0055FF" stroke-width="1.1794"/>
</g>
<defs>
<clipPath id="clip0_8280_8095">
<rect x="182.163" width="41.2788" height="41.2788" rx="0.786263" fill="white"/>
</clipPath>
</defs>
</svg>
